<?xml version="1.0"?>
<svg xmlns="http://www.w3.org/2000/svg" id="Outline" viewBox="0 0 512 512" width="512px" height="512px"><g><path d="M17.925,277.207l48,56a8,8,0,0,0,5.767,2.787c.1,0,.205.006.308.006a8,8,0,0,0,5.656-2.343L156.6,254.708a126.9,126.9,0,0,0-4.577,24.612c-2.507,29.383-15,87.885-31.026,116.8-9,16.25-31.7,55.477-31.927,55.872A8,8,0,0,0,96,464H208.965c4.46,18.236,23.854,32,47.035,32s42.574-13.764,47.034-32H416a8,8,0,0,0,6.925-12.006C422.7,451.6,400,412.372,391,396.122h0c-16.027-28.917-28.518-87.419-31.026-116.8a126.976,126.976,0,0,0-4.576-24.611l78.948,78.949A8,8,0,0,0,440,336c.1,0,.2,0,.307-.006a8,8,0,0,0,5.767-2.787l48-56a8,8,0,0,0-.581-11.023l-78.738-74.363A39.979,39.979,0,0,0,450.7,146.343l-5.359-37.517a40,40,0,0,0-52.248-32.29L286.7,112h-7.878C284.554,101.989,288,87.978,288,72c0-31.925-13.757-56-32-56s-32,24.075-32,56c0,15.978,3.446,29.989,9.175,40H225.3L118.905,76.536a40,40,0,0,0-52.247,32.29L61.3,146.343a39.979,39.979,0,0,0,35.946,45.478L18.506,266.184A8,8,0,0,0,17.925,277.207ZM256,480c-13.906,0-25.763-6.689-30.166-16h60.331C281.762,473.311,269.9,480,256,480ZM476.965,272.582l-37.417,43.652L315.314,192h76.329ZM296,125.766,398.154,91.714A24,24,0,0,1,429.5,111.089l5.359,37.517A24,24,0,0,1,411.1,176H296ZM256,32c6.523,0,16,15.583,16,40s-9.477,40-16,40-16-15.583-16-40S249.476,32,256,32Zm-24,96h48v48H232Zm24,64a82.307,82.307,0,0,1,60.438,25.749c15.717,16.266,25.516,38.615,27.591,62.931,2.694,31.568,15.651,91.944,32.974,123.2h0c5.911,10.665,17.626,31.073,25.143,44.122H109.853c7.517-13.049,19.233-33.457,25.144-44.122,17.322-31.254,30.28-91.63,32.974-123.2,2.074-24.316,11.873-46.665,27.59-62.931A82.308,82.308,0,0,1,256,192ZM82.765,167.725a23.99,23.99,0,0,1-5.628-19.119l5.36-37.517a24,24,0,0,1,31.348-19.375L216,125.766V176H100.9A23.988,23.988,0,0,1,82.765,167.725ZM120.357,192h76.329L72.451,316.234,35.035,272.582Z" data-original="#000000" class="active-path" data-old_color="#000000" fill="#43A9FF"/></g> </svg>
