<?xml version="1.0"?>
<svg xmlns="http://www.w3.org/2000/svg" xmlns:xlink="http://www.w3.org/1999/xlink" version="1.1" id="Capa_1" x="0px" y="0px" viewBox="0 0 512 512" style="enable-background:new 0 0 512 512;" xml:space="preserve" width="512px" height="512px" class=""><g><g>
	<g>
		<path d="M346.141,170.618L262.207,78.29c-3.177-3.5-9.237-3.5-12.418,0l-83.934,92.328c-1.402,1.544-2.182,3.555-2.182,5.645    v327.344c0,4.633,3.76,8.393,8.393,8.393h167.869c4.633,0,8.393-3.76,8.393-8.393V176.262    C348.328,174.172,347.547,172.162,346.141,170.618z M331.541,495.213H180.459V179.506L256,96.411l75.541,83.095V495.213z" data-original="#000000" class="active-path" data-old_color="#000000" fill="#43A9FF"/>
	</g>
</g><g>
	<g>
		<path d="M320.105,208.132c-5.397-13.153-16.883-21.84-30.758-23.25c-1.456-0.143-2.934-0.222-4.423-0.222    c-10.979,0-21.37,4.113-29.293,11.335c-7.923-7.223-18.314-11.335-29.297-11.335c-1.507,0-2.988,0.071-4.444,0.222    c-13.849,1.41-25.34,10.102-30.737,23.25c-5.619,13.694-3.315,29.218,6.018,40.511l51.989,62.922    c1.595,1.93,3.966,3.051,6.471,3.051c2.505,0,4.877-1.121,6.471-3.051l51.985-62.917    C323.42,237.35,325.729,221.826,320.105,208.132z M301.148,237.95l-45.518,55.095l-45.518-55.095    c-5.38-6.505-6.694-15.49-3.429-23.443c3.051-7.428,9.212-12.141,16.909-12.922c0.902-0.092,1.813-0.138,2.74-0.138    c8.981,0,17.32,4.482,22.31,11.982c1.557,2.346,4.18,3.752,6.992,3.752c2.812,0,5.435-1.406,6.992-3.748    c4.986-7.508,13.32-11.99,22.301-11.99c0.932,0,1.859,0.05,2.749,0.138c7.693,0.781,13.849,5.489,16.9,12.922    C307.842,222.456,306.529,231.441,301.148,237.95z" data-original="#000000" class="active-path" data-old_color="#000000" fill="#43A9FF"/>
	</g>
</g><g>
	<g>
		<path d="M256,0c-4.633,0-8.393,3.76-8.393,8.393v83.934c0,4.633,3.76,8.393,8.393,8.393c4.633,0,8.393-3.76,8.393-8.393V8.393    C264.393,3.76,260.633,0,256,0z" data-original="#000000" class="active-path" data-old_color="#000000" fill="#43A9FF"/>
	</g>
</g><g>
	<g>
		<path d="M289.574,25.18h-67.148c-4.633,0-8.393,3.76-8.393,8.393s3.76,8.393,8.393,8.393h67.148c4.633,0,8.393-3.76,8.393-8.393    S294.207,25.18,289.574,25.18z" data-original="#000000" class="active-path" data-old_color="#000000" fill="#43A9FF"/>
	</g>
</g><g>
	<g>
		<path d="M272.787,344.131h-33.574c-23.141,0-41.967,18.826-41.967,41.967v117.508c0,4.633,3.76,8.393,8.393,8.393h100.721    c4.633,0,8.393-3.76,8.393-8.393V386.098C314.754,362.958,295.928,344.131,272.787,344.131z M297.967,495.213h-83.934V386.098    c0-13.887,11.293-25.18,25.18-25.18h33.574c13.887,0,25.18,11.293,25.18,25.18V495.213z" data-original="#000000" class="active-path" data-old_color="#000000" fill="#43A9FF"/>
	</g>
</g><g>
	<g>
		<path d="M176.737,328.763c-2.329-1.561-5.284-1.851-7.869-0.789L26.179,386.728c-3.143,1.297-5.195,4.36-5.195,7.764v109.115    c0,4.633,3.76,8.393,8.393,8.393h142.688c4.633,0,8.393-3.76,8.393-8.393V335.738    C180.459,332.938,179.062,330.324,176.737,328.763z M163.672,495.213H37.771v-95.098l125.902-51.846V495.213z" data-original="#000000" class="active-path" data-old_color="#000000" fill="#43A9FF"/>
	</g>
</g><g>
	<g>
		<path d="M485.821,386.728l-142.689-58.754c-2.589-1.062-5.535-0.768-7.869,0.789c-2.325,1.561-3.723,4.176-3.723,6.975v167.869    c0,4.633,3.76,8.393,8.393,8.393h142.688c4.633,0,8.393-3.76,8.393-8.393V394.492    C491.016,391.088,488.964,388.025,485.821,386.728z M474.229,495.213H348.328V348.269l125.902,51.846V495.213z" data-original="#000000" class="active-path" data-old_color="#000000" fill="#43A9FF"/>
	</g>
</g><g>
	<g>
		<path d="M100.721,394.492c-20.824,0-37.771,16.942-37.771,37.77s16.946,37.771,37.771,37.771    c20.824,0,37.771-16.942,37.771-37.771S121.545,394.492,100.721,394.492z M100.721,453.246c-11.57,0-20.984-9.413-20.984-20.984    s9.413-20.984,20.984-20.984s20.984,9.413,20.984,20.984S112.292,453.246,100.721,453.246z" data-original="#000000" class="active-path" data-old_color="#000000" fill="#43A9FF"/>
	</g>
</g><g>
	<g>
		<path d="M411.279,394.492c-20.828,0-37.771,16.942-37.771,37.77s16.942,37.771,37.771,37.771s37.771-16.942,37.771-37.771    S432.107,394.492,411.279,394.492z M411.279,453.246c-11.57,0-20.984-9.413-20.984-20.984s9.413-20.984,20.984-20.984    s20.984,9.413,20.984,20.984S422.849,453.246,411.279,453.246z" data-original="#000000" class="active-path" data-old_color="#000000" fill="#43A9FF"/>
	</g>
</g><g id="SVGCleanerId_0">
	<g>
		<path d="M88.131,92.328c-4.633,0-8.393,3.76-8.393,8.393v25.18c0,4.633,3.76,8.393,8.393,8.393s8.393-3.76,8.393-8.393v-25.18    C96.525,96.088,92.764,92.328,88.131,92.328z" data-original="#000000" class="active-path" data-old_color="#000000" fill="#43A9FF"/>
	</g>
</g><g id="SVGCleanerId_1">
	<g>
		<path d="M88.131,151.082c-4.633,0-8.393,3.76-8.393,8.393v25.18c0,4.633,3.76,8.393,8.393,8.393s8.393-3.76,8.393-8.393v-25.18    C96.525,154.842,92.764,151.082,88.131,151.082z" data-original="#000000" class="active-path" data-old_color="#000000" fill="#43A9FF"/>
	</g>
</g><g>
	<g>
		<path d="M88.131,92.328c-4.633,0-8.393,3.76-8.393,8.393v25.18c0,4.633,3.76,8.393,8.393,8.393s8.393-3.76,8.393-8.393v-25.18    C96.525,96.088,92.764,92.328,88.131,92.328z" data-original="#000000" class="active-path" data-old_color="#000000" fill="#43A9FF"/>
	</g>
</g><g>
	<g>
		<path d="M88.131,151.082c-4.633,0-8.393,3.76-8.393,8.393v25.18c0,4.633,3.76,8.393,8.393,8.393s8.393-3.76,8.393-8.393v-25.18    C96.525,154.842,92.764,151.082,88.131,151.082z" data-original="#000000" class="active-path" data-old_color="#000000" fill="#43A9FF"/>
	</g>
</g><g id="SVGCleanerId_2">
	<g>
		<path d="M71.344,134.295h-25.18c-4.633,0-8.393,3.76-8.393,8.393s3.76,8.393,8.393,8.393h25.18c4.633,0,8.393-3.76,8.393-8.393    S75.977,134.295,71.344,134.295z" data-original="#000000" class="active-path" data-old_color="#000000" fill="#43A9FF"/>
	</g>
</g><g id="SVGCleanerId_3">
	<g>
		<path d="M130.098,134.295h-25.18c-4.633,0-8.393,3.76-8.393,8.393s3.76,8.393,8.393,8.393h25.18c4.633,0,8.393-3.76,8.393-8.393    S134.732,134.295,130.098,134.295z" data-original="#000000" class="active-path" data-old_color="#000000" fill="#43A9FF"/>
	</g>
</g><g>
	<g>
		<path d="M71.344,134.295h-25.18c-4.633,0-8.393,3.76-8.393,8.393s3.76,8.393,8.393,8.393h25.18c4.633,0,8.393-3.76,8.393-8.393    S75.977,134.295,71.344,134.295z" data-original="#000000" class="active-path" data-old_color="#000000" fill="#43A9FF"/>
	</g>
</g><g>
	<g>
		<path d="M130.098,134.295h-25.18c-4.633,0-8.393,3.76-8.393,8.393s3.76,8.393,8.393,8.393h25.18c4.633,0,8.393-3.76,8.393-8.393    S134.732,134.295,130.098,134.295z" data-original="#000000" class="active-path" data-old_color="#000000" fill="#43A9FF"/>
	</g>
</g><g id="SVGCleanerId_4">
	<g>
		<path d="M440.656,193.049c-4.633,0-8.393,3.76-8.393,8.393v25.18c0,4.633,3.76,8.393,8.393,8.393c4.633,0,8.393-3.76,8.393-8.393    v-25.18C449.049,196.809,445.289,193.049,440.656,193.049z" data-original="#000000" class="active-path" data-old_color="#000000" fill="#43A9FF"/>
	</g>
</g><g id="SVGCleanerId_5">
	<g>
		<path d="M440.656,251.803c-4.633,0-8.393,3.76-8.393,8.393v25.18c0,4.633,3.76,8.393,8.393,8.393c4.633,0,8.393-3.76,8.393-8.393    v-25.18C449.049,255.564,445.289,251.803,440.656,251.803z" data-original="#000000" class="active-path" data-old_color="#000000" fill="#43A9FF"/>
	</g>
</g><g>
	<g>
		<path d="M440.656,193.049c-4.633,0-8.393,3.76-8.393,8.393v25.18c0,4.633,3.76,8.393,8.393,8.393c4.633,0,8.393-3.76,8.393-8.393    v-25.18C449.049,196.809,445.289,193.049,440.656,193.049z" data-original="#000000" class="active-path" data-old_color="#000000" fill="#43A9FF"/>
	</g>
</g><g>
	<g>
		<path d="M440.656,251.803c-4.633,0-8.393,3.76-8.393,8.393v25.18c0,4.633,3.76,8.393,8.393,8.393c4.633,0,8.393-3.76,8.393-8.393    v-25.18C449.049,255.564,445.289,251.803,440.656,251.803z" data-original="#000000" class="active-path" data-old_color="#000000" fill="#43A9FF"/>
	</g>
</g><g id="SVGCleanerId_6">
	<g>
		<path d="M423.869,235.016h-25.18c-4.633,0-8.393,3.76-8.393,8.393s3.76,8.393,8.393,8.393h25.18c4.633,0,8.393-3.76,8.393-8.393    S428.502,235.016,423.869,235.016z" data-original="#000000" class="active-path" data-old_color="#000000" fill="#43A9FF"/>
	</g>
</g><g id="SVGCleanerId_7">
	<g>
		<path d="M482.623,235.016h-25.18c-4.633,0-8.393,3.76-8.393,8.393s3.76,8.393,8.393,8.393h25.18c4.633,0,8.393-3.76,8.393-8.393    S487.256,235.016,482.623,235.016z" data-original="#000000" class="active-path" data-old_color="#000000" fill="#43A9FF"/>
	</g>
</g><g>
	<g>
		<path d="M423.869,235.016h-25.18c-4.633,0-8.393,3.76-8.393,8.393s3.76,8.393,8.393,8.393h25.18c4.633,0,8.393-3.76,8.393-8.393    S428.502,235.016,423.869,235.016z" data-original="#000000" class="active-path" data-old_color="#000000" fill="#43A9FF"/>
	</g>
</g><g>
	<g>
		<path d="M482.623,235.016h-25.18c-4.633,0-8.393,3.76-8.393,8.393s3.76,8.393,8.393,8.393h25.18c4.633,0,8.393-3.76,8.393-8.393    S487.256,235.016,482.623,235.016z" data-original="#000000" class="active-path" data-old_color="#000000" fill="#43A9FF"/>
	</g>
</g><g>
	<g>
		<path d="M256,344.131c-4.633,0-8.393,3.76-8.393,8.393v142.688c0,4.633,3.76,8.393,8.393,8.393c4.633,0,8.393-3.76,8.393-8.393    V352.525C264.393,347.891,260.633,344.131,256,344.131z" data-original="#000000" class="active-path" data-old_color="#000000" fill="#43A9FF"/>
	</g>
</g><g>
	<g>
		<path d="M272.787,428.066h-33.574c-4.633,0-8.393,3.76-8.393,8.393c0,4.633,3.76,8.393,8.393,8.393h33.574    c4.633,0,8.393-3.76,8.393-8.393C281.18,431.826,277.42,428.066,272.787,428.066z" data-original="#000000" class="active-path" data-old_color="#000000" fill="#43A9FF"/>
	</g>
</g></g> </svg>
